<svg width="14" height="14" viewBox="0 0 14 14" fill="none" xmlns="http://www.w3.org/2000/svg">
<path d="M13.9781 10.5819L13.3424 13.3381C13.2531 13.7278 12.9106 14.0004 12.5095 14.0004C5.61094 13.9999 0 8.38892 0 1.49009C0 1.08923 0.27259 0.74634 0.662266 0.657473L3.41852 0.0217308C3.81992 -0.0712927 4.23008 0.137067 4.39688 0.5172L5.66891 3.484C5.8176 3.83345 5.71731 4.2406 5.42336 4.48068L3.95117 5.66275C4.88031 7.55548 6.41922 9.09439 8.3125 10.0241L9.51781 8.55298C9.75537 8.25821 10.1656 8.15622 10.515 8.30757L13.4818 9.57933C13.8387 9.76704 14.0711 10.1827 13.9781 10.5819Z" fill="#4F4F4F"/>
</svg>
