<svg width="24" height="24" viewBox="0 0 24 24" fill="none" xmlns="http://www.w3.org/2000/svg">
<circle cx="12" cy="12" r="12" fill="#F2F2F2"/>
<path fill-rule="evenodd" clip-rule="evenodd" d="M12.0008 13.9723L15.8847 17.7148C16.2744 18.0931 16.5279 18.097 16.9246 17.7148L17.7039 16.9638C18.0857 16.596 18.1115 16.3546 17.7039 15.9618L13.5919 12.0002L17.7043 8.03852C18.0894 7.66618 18.0969 7.41489 17.7043 7.0362L16.925 6.28552C16.5207 5.89588 16.271 5.91388 15.8851 6.28552L12.0008 10.028L8.11679 6.28587C7.73091 5.91423 7.48115 5.89623 7.07689 6.28587L6.29763 7.03655C5.90462 7.41524 5.91174 7.66653 6.29763 8.03887L10.4096 12.0002L6.29763 15.9618C5.88999 16.3546 5.91174 16.596 6.29763 16.9638L7.07652 17.7148C7.4699 18.097 7.72341 18.0931 8.11642 17.7148L12.0008 13.9723Z" fill="#333333"/>
</svg>
