<svg width="16" height="16" viewBox="0 0 16 16" fill="none" xmlns="http://www.w3.org/2000/svg">
<path d="M7.99996 0C3.57645 0 0 3.57645 0 7.99996C0 12.4235 3.57645 15.9999 7.99996 15.9999C12.4235 15.9999 15.9999 12.4235 15.9999 7.99996C16.0187 3.57645 12.4235 0 7.99996 0ZM9.97643 11.5952C9.58113 11.9905 9.01643 12.2541 8.30114 12.367V13.7223H7.64232V12.4046C6.73879 12.4046 6.0235 12.2164 5.4588 11.8588V10.767C5.7035 10.9741 6.04233 11.1623 6.45644 11.2941C6.88938 11.4447 7.26585 11.5011 7.64232 11.5011V8.31996C6.71997 7.8682 6.11762 7.47291 5.83527 7.09644C5.55292 6.71997 5.42115 6.28703 5.42115 5.7788C5.42115 5.17645 5.62821 4.64939 6.04233 4.21645C6.45644 3.78351 6.9835 3.51998 7.62349 3.42587V2.29646H8.28232V3.40704C9.11055 3.42587 9.67525 3.55763 9.99525 3.76469V4.83763C9.56231 4.4988 8.99761 4.32939 8.28232 4.29174V7.60467C9.16702 8.01879 9.75054 8.41408 10.0894 8.80937C10.4094 9.20466 10.5788 9.6376 10.5788 10.127C10.5788 10.6917 10.3717 11.1811 9.97643 11.5952Z" fill="#5CC758"/>
</svg>
