<svg width="24" height="20" viewBox="0 0 24 20" fill="none" xmlns="http://www.w3.org/2000/svg">
<path d="M13.1881 18.8862C13.0703 18.9566 12.9742 19.0129 12.9029 19.0542C12.8316 19.0129 12.7355 18.9566 12.6177 18.8862C12.3412 18.721 11.9454 18.4779 11.4701 18.1678C10.5189 17.5471 9.2521 16.6597 7.98679 15.5915C6.72013 14.5221 5.4635 13.2786 4.52563 11.9472C3.58612 10.6135 2.9836 9.21592 2.98359 7.83203C2.98359 5.75043 3.33 4.18774 4.04174 3.20416C4.73211 2.25013 5.80159 1.79442 7.39887 2.00107C7.55025 2.02066 7.65658 1.94378 7.71034 1.88869C7.7479 1.85021 7.78027 1.8005 7.79325 1.78055C7.7948 1.77817 7.79607 1.77622 7.79705 1.77475C7.81438 1.74872 7.82258 1.7382 7.82908 1.73153C7.83107 1.72949 7.83227 1.7285 7.83273 1.72814C7.83287 1.72803 7.83295 1.72798 7.83296 1.72797C7.83301 1.72793 7.83292 1.728 7.83274 1.7281L7.83422 1.72765C7.83527 1.72735 7.83705 1.7269 7.8397 1.72646C7.84496 1.72558 7.85442 1.72458 7.86915 1.72512C7.89934 1.72622 7.94969 1.73373 8.02627 1.75978C8.18203 1.81276 8.41743 1.93229 8.76575 2.17398L8.79868 2.19683L8.83645 2.21023C9.85242 2.57072 10.7981 3.59619 11.5081 4.5861C11.8575 5.07337 12.1397 5.53739 12.3345 5.87974C12.4318 6.05072 12.507 6.19087 12.5576 6.28778C12.583 6.33623 12.6021 6.37383 12.6148 6.39904L12.629 6.42736L12.6323 6.43417L12.6331 6.43568L12.6332 6.4359L12.6332 6.43595L12.6332 6.43596L12.9029 6.99004L13.1726 6.43597L13.1726 6.43594L13.1727 6.4359L13.1728 6.43561L13.1737 6.43381L13.1776 6.4258L13.1942 6.39273C13.209 6.36335 13.2314 6.31966 13.2609 6.26361C13.3199 6.15147 13.4073 5.99007 13.5199 5.79502C13.7456 5.40439 14.0711 4.88152 14.471 4.35023C14.8719 3.81778 15.3418 3.28455 15.8549 2.86753C16.3698 2.44899 16.9091 2.16294 17.4506 2.09288C17.7016 2.06041 17.8897 1.98049 18.0389 1.87398C18.1691 1.78104 18.2611 1.67233 18.3233 1.59889C18.3292 1.59195 18.3348 1.58533 18.3402 1.57906C18.4118 1.4952 18.4341 1.47982 18.4493 1.47343L18.4495 1.47334C18.4538 1.47151 18.4901 1.45582 18.6069 1.48891C20.0529 2.0911 21.0994 2.9171 21.7872 3.95823C22.4776 5.00327 22.8223 6.28867 22.8222 7.83203C22.8222 9.21593 22.2197 10.6135 21.2802 11.9472C20.3423 13.2786 19.0857 14.5221 17.819 15.5915C16.5537 16.6598 15.287 17.5471 14.3358 18.1678C13.8604 18.4779 13.4646 18.721 13.1881 18.8862Z" fill="#CBFCC9" stroke="black" stroke-width="0.6"/>
<path d="M11.3815 17.7442C11.2637 17.8146 11.1676 17.8708 11.0963 17.9121C11.0249 17.8708 10.9288 17.8146 10.8111 17.7442C10.5346 17.5789 10.1388 17.3359 9.66344 17.0257C8.71223 16.4051 7.44546 15.5177 6.18015 14.4495C4.91349 13.3801 3.65686 12.1366 2.71899 10.8052C1.77948 9.47142 1.17696 8.07387 1.17695 6.68998C1.17694 4.64062 1.74849 3.10715 2.68557 2.14101C3.61685 1.18085 4.94522 0.743402 6.54855 0.950831C7.84445 1.11849 8.9072 2.15472 9.66697 3.22045C10.0414 3.74562 10.3301 4.261 10.5253 4.64563C10.6227 4.83764 10.6965 4.99628 10.7456 5.10625C10.7701 5.16122 10.7885 5.20397 10.8006 5.23258L10.8139 5.26464L10.817 5.27225L10.8177 5.27387L10.8178 5.27401L10.8178 5.27412L10.8178 5.27413L11.0695 5.90301L11.366 5.29391L11.366 5.29389L11.366 5.29384L11.3662 5.29355L11.367 5.29176L11.371 5.28375L11.3876 5.25068C11.4024 5.2213 11.4248 5.1776 11.4542 5.12155C11.5132 5.00942 11.6006 4.84802 11.7133 4.65297C11.939 4.26234 12.2644 3.73947 12.6644 3.20818C13.0652 2.67573 13.5352 2.1425 14.0482 1.72547C14.5631 1.30694 15.1025 1.02089 15.644 0.950831C17.2472 0.743423 18.5756 1.18153 19.5069 2.14211C20.4441 3.10865 21.0156 4.64217 21.0156 6.68998C21.0156 8.07388 20.4131 9.47144 19.4736 10.8052C18.5357 12.1366 17.2791 13.3801 16.0124 14.4495C14.7471 15.5177 13.4803 16.4051 12.5291 17.0257C12.0538 17.3359 11.658 17.5789 11.3815 17.7442Z" fill="white" stroke="black" stroke-width="0.6"/>
</svg>
