<svg width="14" height="8" viewBox="0 0 14 8" fill="none" xmlns="http://www.w3.org/2000/svg">
<path d="M1.09361 0.646875C1.43736 0.828125 6.21236 3.43125 6.39049 3.525C6.56861 3.61875 6.74986 3.6625 7.03111 3.6625C7.31236 3.6625 7.49361 3.61875 7.67174 3.525C7.84986 3.43125 12.6249 0.828125 12.9686 0.646875C13.0967 0.58125 13.3124 0.4625 13.3592 0.328125C13.4405 0.090625 13.353 0 13.0061 0H7.03111H1.05611C0.709239 0 0.621739 0.09375 0.702989 0.328125C0.749864 0.465625 0.965489 0.58125 1.09361 0.646875Z" fill="#333333"/>
<path d="M13.2406 0.787599C12.9844 0.918849 10.6844 2.55635 9.1625 3.54072L11.7312 6.43135C11.7937 6.49385 11.8219 6.56885 11.7875 6.60635C11.75 6.64072 11.6687 6.62197 11.6031 6.5626L8.52188 3.9626C8.05625 4.2626 7.72813 4.46885 7.67188 4.5001C7.43125 4.62197 7.2625 4.6376 7.03125 4.6376C6.8 4.6376 6.63125 4.62197 6.39062 4.5001C6.33125 4.46885 6.00625 4.2626 5.54063 3.9626L2.45937 6.5626C2.39687 6.6251 2.3125 6.64385 2.275 6.60635C2.2375 6.57197 2.26562 6.49385 2.32812 6.43135L4.89375 3.54072C3.37188 2.55635 1.04688 0.918849 0.790625 0.787599C0.515625 0.646974 0.5 0.812599 0.5 0.940724C0.5 1.06885 0.5 7.34697 0.5 7.34697C0.5 7.6376 0.928125 8.0001 1.23438 8.0001H7.03125H12.8281C13.1344 8.0001 13.5 7.63447 13.5 7.34697C13.5 7.34697 13.5 1.06572 13.5 0.940724C13.5 0.809474 13.5188 0.646974 13.2406 0.787599Z" fill="#333333"/>
</svg>
