<svg width="24" height="22" viewBox="0 0 24 22" fill="none" xmlns="http://www.w3.org/2000/svg">
<path fill-rule="evenodd" clip-rule="evenodd" d="M22.775 11.3367C22.775 16.915 18.2529 21.4371 12.6746 21.4371C7.09632 21.4371 2.57422 16.915 2.57422 11.3367C2.57422 5.75843 7.09632 1.23633 12.6746 1.23633C18.2529 1.23633 22.775 5.75843 22.775 11.3367ZM5.09805 14.1516C7.95691 14.1327 10.3685 16.3145 10.6375 19.1581C8.07659 18.493 6.00931 16.6033 5.09805 14.1516ZM4.61397 10.7675C4.90604 6.57047 8.40327 3.25639 12.6745 3.25639C16.9122 3.25639 20.3879 6.5185 20.7276 10.6686C19.1171 9.77437 16.3976 8.83093 12.6697 8.83093C8.80384 8.83093 6.21386 9.84544 4.61397 10.7675ZM14.6724 19.1681C17.2539 18.5116 19.3393 16.6121 20.2538 14.1443C17.3723 14.1081 14.9377 16.3047 14.6724 19.1681Z" fill="#CBFCC9"/>
<path d="M5.09805 14.1516L5.09541 13.7516L4.52405 13.7554L4.72311 14.2909L5.09805 14.1516ZM10.6375 19.1581L10.537 19.5452L11.0895 19.6887L11.0357 19.1204L10.6375 19.1581ZM4.61397 10.7675L4.21494 10.7397L4.16278 11.4892L4.81371 11.1141L4.61397 10.7675ZM20.7276 10.6686L20.5335 11.0183L21.1873 11.3813L21.1263 10.6359L20.7276 10.6686ZM14.6724 19.1681L14.2741 19.1312L14.2218 19.6955L14.771 19.5558L14.6724 19.1681ZM20.2538 14.1443L20.6288 14.2833L20.8259 13.7514L20.2588 13.7443L20.2538 14.1443ZM12.6746 21.8371C18.4738 21.8371 23.175 17.1359 23.175 11.3367H22.375C22.375 16.6941 18.032 21.0371 12.6746 21.0371V21.8371ZM2.17422 11.3367C2.17422 17.1359 6.8754 21.8371 12.6746 21.8371V21.0371C7.31723 21.0371 2.97422 16.6941 2.97422 11.3367H2.17422ZM12.6746 0.836328C6.8754 0.836328 2.17422 5.53751 2.17422 11.3367H2.97422C2.97422 5.97934 7.31723 1.63633 12.6746 1.63633V0.836328ZM23.175 11.3367C23.175 5.53751 18.4738 0.836328 12.6746 0.836328V1.63633C18.032 1.63633 22.375 5.97934 22.375 11.3367H23.175ZM5.1007 14.5516C7.75212 14.534 9.98976 16.5585 10.2393 19.1957L11.0357 19.1204C10.7472 16.0705 8.16169 13.7313 5.09541 13.7516L5.1007 14.5516ZM4.72311 14.2909C5.67948 16.8641 7.84849 18.847 10.537 19.5452L10.7381 18.7709C8.3047 18.1389 6.33914 16.3426 5.47299 14.0122L4.72311 14.2909ZM12.6745 2.85639C8.19166 2.85639 4.52149 6.33455 4.21494 10.7397L5.01301 10.7953C5.29059 6.8064 8.61488 3.65639 12.6745 3.65639V2.85639ZM21.1263 10.6359C20.7698 6.28001 17.1222 2.85639 12.6745 2.85639V3.65639C16.7022 3.65639 20.0061 6.75698 20.329 10.7012L21.1263 10.6359ZM20.9218 10.3188C19.2514 9.39144 16.465 8.43093 12.6697 8.43093V9.23093C16.3301 9.23093 18.9827 10.1573 20.5335 11.0183L20.9218 10.3188ZM12.6697 8.43093C8.72884 8.43093 6.07049 9.4664 4.41424 10.421L4.81371 11.1141C6.35723 10.2245 8.87884 9.23093 12.6697 9.23093V8.43093ZM14.771 19.5558C17.4811 18.8665 19.6691 16.8732 20.6288 14.2833L19.8787 14.0053C19.0094 16.351 17.0267 18.1566 14.5738 18.7805L14.771 19.5558ZM15.0707 19.2051C15.3168 16.5491 17.5761 14.5107 20.2487 14.5443L20.2588 13.7443C17.1686 13.7055 14.5586 16.0604 14.2741 19.1312L15.0707 19.2051Z" fill="black"/>
<path fill-rule="evenodd" clip-rule="evenodd" d="M21.4273 10.6633C21.4273 16.2416 16.9052 20.7637 11.327 20.7637C5.74866 20.7637 1.22656 16.2416 1.22656 10.6633C1.22656 5.08503 5.74866 0.562927 11.327 0.562927C16.9052 0.562927 21.4273 5.08503 21.4273 10.6633ZM3.75039 13.4782C6.60925 13.4593 9.0208 15.6411 9.28986 18.4847C6.72894 17.8196 4.66165 15.93 3.75039 13.4782ZM3.26632 10.0941C3.55838 5.89709 7.05561 2.583 11.3269 2.583C15.5645 2.583 19.0403 5.84511 19.38 9.99516C17.7694 9.10098 15.0499 8.15754 11.322 8.15754C7.45618 8.15754 4.8662 9.17206 3.26632 10.0941ZM13.3247 18.4948C15.9063 17.8382 17.9916 15.9387 18.9061 13.4709C16.0247 13.4347 13.5901 15.6314 13.3247 18.4948Z" fill="white"/>
<path d="M3.75039 13.4782L3.74775 13.0782L3.1764 13.082L3.37545 13.6176L3.75039 13.4782ZM9.28986 18.4847L9.18931 18.8718L9.74186 19.0153L9.68808 18.447L9.28986 18.4847ZM3.26632 10.0941L2.86728 10.0664L2.81513 10.8158L3.46605 10.4407L3.26632 10.0941ZM19.38 9.99516L19.1858 10.3449L19.8396 10.7079L19.7786 9.96253L19.38 9.99516ZM13.3247 18.4948L12.9264 18.4578L12.8741 19.0221L13.4233 18.8824L13.3247 18.4948ZM18.9061 13.4709L19.2812 13.6099L19.4783 13.0781L18.9111 13.0709L18.9061 13.4709ZM11.327 21.1637C17.1262 21.1637 21.8273 16.4625 21.8273 10.6633H21.0273C21.0273 16.0207 16.6843 20.3637 11.327 20.3637V21.1637ZM0.826562 10.6633C0.826562 16.4625 5.52775 21.1637 11.327 21.1637V20.3637C5.96958 20.3637 1.62656 16.0207 1.62656 10.6633H0.826562ZM11.327 0.162927C5.52775 0.162927 0.826562 4.86411 0.826562 10.6633H1.62656C1.62656 5.30594 5.96958 0.962927 11.327 0.962927V0.162927ZM21.8273 10.6633C21.8273 4.86411 17.1262 0.162927 11.327 0.162927V0.962927C16.6843 0.962927 21.0273 5.30594 21.0273 10.6633H21.8273ZM3.75304 13.8782C6.40447 13.8607 8.6421 15.8851 8.89164 18.5224L9.68808 18.447C9.3995 15.3972 6.81403 13.0579 3.74775 13.0782L3.75304 13.8782ZM3.37545 13.6176C4.33182 16.1907 6.50083 18.1736 9.18931 18.8718L9.39041 18.0975C6.95704 17.4656 4.99148 15.6692 4.12533 13.3388L3.37545 13.6176ZM11.3269 2.183C6.84401 2.183 3.17383 5.66116 2.86728 10.0664L3.66535 10.1219C3.94293 6.13301 7.26722 2.983 11.3269 2.983V2.183ZM19.7786 9.96253C19.4221 5.60662 15.7745 2.183 11.3269 2.183V2.983C15.3546 2.983 18.6585 6.08359 18.9813 10.0278L19.7786 9.96253ZM19.5741 9.64545C17.9038 8.71805 15.1174 7.75754 11.322 7.75754V8.55754C14.9825 8.55754 17.6351 9.48391 19.1858 10.3449L19.5741 9.64545ZM11.322 7.75754C7.38119 7.75754 4.72283 8.79301 3.06658 9.74757L3.46605 10.4407C5.00957 9.5511 7.53118 8.55754 11.322 8.55754V7.75754ZM13.4233 18.8824C16.1335 18.1931 18.3214 16.1999 19.2812 13.6099L18.531 13.3319C17.6618 15.6776 15.6791 17.4832 13.2261 18.1071L13.4233 18.8824ZM13.723 18.5317C13.9691 15.8757 16.2284 13.8373 18.9011 13.8709L18.9111 13.0709C15.8209 13.0322 13.211 15.387 12.9264 18.4578L13.723 18.5317Z" fill="black"/>
<ellipse cx="11.3279" cy="11.6802" rx="1.6834" ry="1.6834" fill="#5CC758"/>
</svg>
