<svg width="16" height="16" viewBox="0 0 16 16" fill="none" xmlns="http://www.w3.org/2000/svg">
<path fill-rule="evenodd" clip-rule="evenodd" d="M12.333 15.6666H3.66634C2.93001 15.6666 2.33301 15.0696 2.33301 14.3333V1.66665C2.33301 0.930313 2.93001 0.333313 3.66634 0.333313H9.99067C9.99134 0.333313 9.99234 0.333313 9.99301 0.333313H9.99967C10.1063 0.333313 10.1973 0.38698 10.2583 0.46498L13.5347 3.74131C13.613 3.80231 13.6663 3.89331 13.6663 3.99998V4.00698C13.6663 4.00765 13.6663 4.00798 13.6663 4.00865V14.3333C13.6663 15.0696 13.0693 15.6666 12.333 15.6666ZM10.333 1.46031V3.66665H12.5393L10.333 1.46031ZM12.9997 4.33331H9.99967C9.81534 4.33331 9.66634 4.18398 9.66634 3.99998V0.99998H3.66634C3.29834 0.99998 2.99967 1.29865 2.99967 1.66665V14.3333C2.99967 14.7013 3.29834 15 3.66634 15H12.333C12.701 15 12.9997 14.7013 12.9997 14.3333V4.33331ZM10.9997 13H4.99967C4.81534 13 4.66634 12.851 4.66634 12.6666C4.66634 12.4826 4.81534 12.3333 4.99967 12.3333H10.9997C11.184 12.3333 11.333 12.4826 11.333 12.6666C11.333 12.851 11.184 13 10.9997 13ZM10.9997 10.3333H4.99967C4.81534 10.3333 4.66634 10.1843 4.66634 9.99998C4.66634 9.81598 4.81534 9.66665 4.99967 9.66665H10.9997C11.184 9.66665 11.333 9.81598 11.333 9.99998C11.333 10.1843 11.184 10.3333 10.9997 10.3333ZM10.9997 7.66665H4.99967C4.81534 7.66665 4.66634 7.51765 4.66634 7.33331C4.66634 7.14931 4.81534 6.99998 4.99967 6.99998H10.9997C11.184 6.99998 11.333 7.14931 11.333 7.33331C11.333 7.51765 11.184 7.66665 10.9997 7.66665Z" fill="#5CC758"/>
</svg>
