<svg width="108" height="37" viewBox="0 0 108 37" fill="none" xmlns="http://www.w3.org/2000/svg">
<path fill-rule="evenodd" clip-rule="evenodd" d="M31.4167 2.44486C31.4167 1.09458 30.3222 0 28.972 0H2.44486C1.09458 0 0 1.09458 0 2.44486V20.6885C0 29.3641 7.03293 36.397 15.7084 36.397C24.384 36.397 31.4167 29.3641 31.4167 20.6885V2.44486ZM17.7414 17.6723L18.4206 17.2201C19.7428 16.3399 20.6104 14.8393 20.6104 13.1364C20.6104 10.4294 18.4158 8.23489 15.7088 8.23489C13.0017 8.23489 10.8073 10.4294 10.8073 13.1364C10.8073 14.8393 11.6748 16.3399 12.9969 17.2201L13.6761 17.6723L11.1835 24.6849H20.234L17.7414 17.6723Z" fill="#5CC758"/>
<path fill-rule="evenodd" clip-rule="evenodd" d="M31.4167 2.44486C31.4167 1.09458 30.3222 0 28.972 0H2.44486C1.09458 0 0 1.09458 0 2.44486V20.6885C0 29.3641 7.03293 36.397 15.7084 36.397C24.384 36.397 31.4167 29.3641 31.4167 20.6885V2.44486ZM17.7414 17.6723L18.4206 17.2201C19.7428 16.3399 20.6104 14.8393 20.6104 13.1364C20.6104 10.4294 18.4158 8.23489 15.7088 8.23489C13.0017 8.23489 10.8073 10.4294 10.8073 13.1364C10.8073 14.8393 11.6748 16.3399 12.9969 17.2201L13.6761 17.6723L11.1835 24.6849H20.234L17.7414 17.6723Z" fill="url(#paint0_linear_8567_12103)"/>
<path d="M49.999 18.3875V9.05762H53.7939V25.1595H50.1144V22.2977H49.9467C49.5835 23.1992 48.9857 23.9365 48.1541 24.5096C47.3297 25.0826 46.3128 25.3692 45.1039 25.3692C44.0482 25.3692 43.1157 25.1351 42.3047 24.6668C41.501 24.1916 40.8723 23.5032 40.4179 22.6017C39.9635 21.6931 39.7363 20.5959 39.7363 19.31V9.05762H43.5312V18.7229C43.5312 19.7433 43.8107 20.554 44.3701 21.155C44.929 21.7561 45.6628 22.0566 46.5711 22.0566C47.1305 22.0566 47.6718 21.9203 48.196 21.6477C48.7203 21.3752 49.1503 20.9698 49.4856 20.4317C49.8282 19.8866 49.999 19.2052 49.999 18.3875Z" fill="black"/>
<path d="M59.1294 15.7245V25.1592H55.3345V9.0573H58.9617V11.7934H59.1506C59.5211 10.8919 60.1116 10.1755 60.922 9.64436C61.7397 9.11324 62.7498 8.84766 63.952 8.84766C65.0631 8.84766 66.0308 9.08529 66.8557 9.56052C67.6874 10.0357 68.3301 10.7241 68.7845 11.6256C69.2456 12.5272 69.4728 13.6209 69.466 14.9068V25.1592H65.6712V15.4939C65.6712 14.4176 65.3912 13.5755 64.8323 12.9675C64.2801 12.3595 63.5147 12.0555 62.5366 12.0555C61.8727 12.0555 61.2822 12.2022 60.7647 12.4957C60.2549 12.7823 59.8528 13.1981 59.5594 13.7432C59.2727 14.2883 59.1294 14.9488 59.1294 15.7245Z" fill="black"/>
<path d="M72.744 31.1977C72.227 31.1977 71.7483 31.1558 71.3079 31.0719C70.8748 30.9951 70.5286 30.9042 70.2703 30.7994L71.1506 27.8432C71.7028 28.0039 72.1954 28.0808 72.6286 28.0738C73.0623 28.0668 73.4432 27.9305 73.7713 27.665C74.1071 27.4064 74.3902 26.9731 74.6205 26.3651L74.9455 25.495L69.1064 9.05762H73.1321L76.8432 21.2179H77.0109L80.7322 9.05762H84.7683L78.3212 27.1094C78.0205 27.962 77.622 28.6923 77.1263 29.3003C76.63 29.9153 76.0219 30.3836 75.302 30.7051C74.5889 31.0335 73.7366 31.1977 72.744 31.1977Z" fill="black"/>
<path d="M93.0725 9.05595V11.9912H83.8164V9.05595H93.0725ZM86.1017 5.19824H89.8966V20.3147C89.8966 20.8249 89.9732 21.2162 90.1269 21.4888C90.2878 21.7544 90.4974 21.9361 90.7562 22.0339C91.0144 22.1318 91.3011 22.1807 91.6158 22.1807C91.8533 22.1807 92.0701 22.1632 92.2657 22.1283C92.4681 22.0933 92.6218 22.0619 92.7268 22.0339L93.3665 25.0006C93.1636 25.0705 92.8738 25.1474 92.496 25.2313C92.126 25.3151 91.6716 25.364 91.1334 25.378C90.1828 25.406 89.3268 25.2627 88.565 24.9482C87.8033 24.6267 87.1988 24.1305 86.7517 23.4596C86.3113 22.7887 86.0945 21.9501 86.1017 20.9437V5.19824Z" fill="black"/>
<path d="M100.84 25.4737C99.226 25.4737 97.8313 25.1382 96.6576 24.4673C95.4901 23.7894 94.5922 22.832 93.9634 21.595C93.3341 20.351 93.02 18.8869 93.02 17.2026C93.02 15.5463 93.3341 14.0926 93.9634 12.8417C94.5995 11.5837 95.487 10.6053 96.626 9.90642C97.765 9.2006 99.1033 8.84766 100.641 8.84766C101.633 8.84766 102.57 9.00839 103.45 9.32987C104.338 9.64436 105.121 10.1336 105.798 10.7975C106.483 11.4614 107.022 12.307 107.413 13.3344C107.804 14.3547 108 15.5707 108 16.9825V18.1461H94.8018V15.5882H104.362C104.355 14.8614 104.198 14.215 103.891 13.6489C103.583 13.0758 103.153 12.625 102.601 12.2966C102.056 11.9681 101.42 11.8039 100.693 11.8039C99.9174 11.8039 99.2363 11.9925 98.6489 12.37C98.0621 12.7403 97.6041 13.2295 97.276 13.8376C96.9546 14.4386 96.7901 15.099 96.7833 15.8188V18.0517C96.7833 18.9882 96.9546 19.7919 97.2967 20.4628C97.6393 21.1268 98.118 21.6369 98.7328 21.9933C99.3481 22.3428 100.068 22.5175 100.892 22.5175C101.445 22.5175 101.944 22.4406 102.392 22.2869C102.839 22.1261 103.227 21.892 103.555 21.5845C103.884 21.277 104.132 20.8961 104.3 20.4418L107.843 20.8402C107.619 21.7767 107.193 22.5944 106.564 23.2933C105.942 23.9851 105.145 24.5232 104.174 24.9076C103.202 25.285 102.091 25.4737 100.84 25.4737Z" fill="black"/>
<defs>
<linearGradient id="paint0_linear_8567_12103" x1="22.409" y1="42.9621" x2="-4.83394" y2="-4.6482" gradientUnits="userSpaceOnUse">
<stop stop-color="#C8FFC6"/>
<stop offset="0.686198" stop-color="#FCE61A" stop-opacity="0"/>
</linearGradient>
</defs>
</svg>
