<svg width="10" height="13" viewBox="0 0 10 13" fill="none" xmlns="http://www.w3.org/2000/svg">
<path fill-rule="evenodd" clip-rule="evenodd" d="M8.25 12.25H1.75C1.19775 12.25 0.75 11.8022 0.75 11.25V1.75C0.75 1.19775 1.19775 0.75 1.75 0.75H6.49325C6.49375 0.75 6.4945 0.75 6.495 0.75H6.5C6.58 0.75 6.64825 0.79025 6.694 0.84875L9.15125 3.306C9.21 3.35175 9.25 3.42 9.25 3.5V3.50525C9.25 3.50575 9.25 3.506 9.25 3.5065V11.25C9.25 11.8022 8.80225 12.25 8.25 12.25ZM6.75 1.59525V3.25H8.40475L6.75 1.59525ZM8.75 3.75H6.5C6.36175 3.75 6.25 3.638 6.25 3.5V1.25H1.75C1.474 1.25 1.25 1.474 1.25 1.75V11.25C1.25 11.526 1.474 11.75 1.75 11.75H8.25C8.526 11.75 8.75 11.526 8.75 11.25V3.75ZM7.25 10.25H2.75C2.61175 10.25 2.5 10.1383 2.5 10C2.5 9.862 2.61175 9.75 2.75 9.75H7.25C7.38825 9.75 7.5 9.862 7.5 10C7.5 10.1383 7.38825 10.25 7.25 10.25ZM7.25 8.25H2.75C2.61175 8.25 2.5 8.13825 2.5 8C2.5 7.862 2.61175 7.75 2.75 7.75H7.25C7.38825 7.75 7.5 7.862 7.5 8C7.5 8.13825 7.38825 8.25 7.25 8.25ZM7.25 6.25H2.75C2.61175 6.25 2.5 6.13825 2.5 6C2.5 5.862 2.61175 5.75 2.75 5.75H7.25C7.38825 5.75 7.5 5.862 7.5 6C7.5 6.13825 7.38825 6.25 7.25 6.25Z" fill="white"/>
</svg>
